<svg width="17" height="27" viewBox="0 0 17 27" fill="none" xmlns="http://www.w3.org/2000/svg">
<path d="M5.66679 0.562658V10.1249C5.66679 10.4233 5.54726 10.7095 5.33476 10.9205C5.12225 11.1314 4.83403 11.2499 4.53332 11.2499H1.13328C0.832738 11.2499 0.544536 11.1314 0.332034 10.9205C0.119342 10.7095 0 10.4233 0 10.1249V0.562658C0 0.251904 0.253677 9.64281e-05 0.566738 9.64281e-05C0.87961 9.64281e-05 1.13328 0.251904 1.13328 0.562658V5.62513H2.26656L2.26675 0.562658C2.26675 0.251904 2.52043 9.64281e-05 2.8333 9.64281e-05C3.14636 9.64281e-05 3.40004 0.251904 3.40004 0.562658V5.62513H4.53332V0.562658C4.53332 0.251904 4.78719 9.64281e-05 5.10006 9.64281e-05C5.41293 9.64281e-05 5.66679 0.251904 5.66679 0.562658ZM1.70001 25.875C1.70001 26.2769 1.91612 26.6483 2.26675 26.8493C2.61738 27.0502 3.04939 27.0502 3.40003 26.8493C3.75067 26.6483 3.96677 26.2769 3.96677 25.875V12.3751H1.70001V25.875ZM11.9001 25.875C11.9001 26.2769 12.1162 26.6483 12.4669 26.8493C12.8175 27.0502 13.2495 27.0502 13.6002 26.8493C13.9508 26.6483 14.1669 26.2769 14.1669 25.875V12.3751H11.9001V25.875ZM13.0334 0C10.8405 0 9.06664 2.51995 9.06664 5.62513C9.06664 8.21832 10.3077 10.4682 11.9906 11.2503H14.076C15.776 10.4685 17 8.21842 17 5.62513C17.0002 2.52005 15.2265 0 13.0334 0Z" fill="white"/>
</svg>
