<svg width="22" height="29" viewBox="0 0 22 29" fill="none" xmlns="http://www.w3.org/2000/svg">
<path fill-rule="evenodd" clip-rule="evenodd" d="M20.2883 16.4527L11.8614 28.555C11.6618 28.8418 11.3556 29 10.9998 29C10.6438 29 10.3377 28.8418 10.1383 28.555L1.71134 16.4527C0.628138 14.7934 0 12.8245 0 10.7128C0 4.79636 4.92477 0 11 0C17.0752 0 22 4.79621 22 10.7128C22 12.8243 21.3723 14.7932 20.2887 16.4527H20.2883ZM13.7937 10.7693L13.6141 17.2342C13.5889 17.516 13.0232 17.7793 12.9222 17.4322L11.1863 12.0548L13.7937 10.7693ZM5.7438 12.421L9.60638 9.85864L14.722 7.41582C15.3423 7.11947 16.075 6.98859 17.0773 7.08913C17.2563 7.10733 17.3996 7.20281 17.4783 7.35696C17.5575 7.5111 17.549 7.68001 17.4555 7.8301C16.9335 8.6698 16.3839 9.15954 15.7674 9.46274L10.6811 11.9622C10.3712 12.1145 6.2303 13.4209 6.2303 13.4209C5.36767 13.7276 4.95307 12.9459 5.74364 12.4214L5.7438 12.421ZM7.73696 13.2855L7.41272 15.3132L6.88514 15.4419L6.46224 13.6565L7.73718 13.2853L7.73696 13.2855ZM12.4613 8.16018L7.05836 4.39927C6.81222 4.24877 6.25533 4.52934 6.47866 4.81699L9.83502 9.40932L12.4611 8.16L12.4613 8.16018ZM6.74676 11.3466L4.89026 10.375L4.46632 10.7071L5.67373 12.1132L6.74656 11.3465L6.74676 11.3466ZM10.9998 2.44572C6.3118 2.44572 2.51117 6.14677 2.51117 10.7127C2.51117 15.2783 6.31201 18.9797 10.9998 18.9797C15.6876 18.9797 19.4884 15.2781 19.4884 10.7127C19.4884 6.14672 15.6876 2.44572 10.9998 2.44572Z" fill="white"/>
</svg>
