<svg width="26" height="24" viewBox="0 0 26 24" fill="none" xmlns="http://www.w3.org/2000/svg">
<path d="M23.9553 19.2505H1.71132C1.25758 19.2509 0.822735 19.4313 0.501933 19.7522C0.18113 20.073 0.000635244 20.5078 0.000244141 20.9616V22.2449C0.000435097 22.4717 0.090765 22.6891 0.251176 22.8495C0.411587 23.0099 0.628914 23.1002 0.855774 23.1004H24.8109C25.0377 23.1002 25.2551 23.0099 25.4155 22.8495C25.5759 22.6891 25.6662 22.4717 25.6664 22.2449V20.9616C25.666 20.5078 25.4856 20.073 25.1647 19.7522C24.8439 19.4314 24.4091 19.2509 23.9553 19.2505Z" fill="white"/>
<path d="M23.9566 18.394C24.0578 18.3946 24.159 18.4011 24.2597 18.4135C23.8951 15.9748 22.7614 13.7163 21.0235 11.9672C19.2857 10.2177 17.0346 9.06923 14.5982 8.68878C13.4293 8.51194 12.2405 8.51194 11.0716 8.68878C8.63577 9.06976 6.38541 10.2184 4.64817 11.9677C2.91074 13.7168 1.77733 15.975 1.41296 18.4131C1.51227 18.4009 1.61233 18.3946 1.7124 18.394L23.9566 18.394Z" fill="white"/>
<path d="M10.9407 7.84244C12.1961 7.65243 13.4727 7.65262 14.728 7.84263C15.0106 7.88598 15.2887 7.94423 15.565 8.00687V8.00706C15.5975 7.835 15.6139 7.66045 15.6141 7.48552C15.6137 6.70273 15.2835 5.95645 14.7045 5.42973C14.1257 4.90306 13.3515 4.64484 12.5722 4.71836C11.793 4.79208 11.0809 5.19063 10.6107 5.81644C10.1406 6.44206 9.95588 7.23707 10.102 8.00588C10.3787 7.94401 10.6571 7.88596 10.9407 7.84241L10.9407 7.84244Z" fill="white"/>
<path d="M9.14284 3.75564C9.32731 3.90326 9.59658 3.87347 9.74421 3.68899C9.89184 3.50451 9.86204 3.23525 9.67756 3.08762L7.53871 1.37654C7.35424 1.22893 7.08497 1.25871 6.93734 1.44319C6.78971 1.62767 6.81951 1.89693 7.00399 2.04456L9.14284 3.75564Z" fill="white"/>
<path d="M16.2565 3.84941C16.3535 3.84941 16.4477 3.81637 16.5235 3.75565L18.6623 2.04457C18.8468 1.89695 18.8766 1.62768 18.729 1.4432C18.5814 1.25871 18.3121 1.22893 18.1276 1.37655L15.9888 3.08763C15.8469 3.20125 15.7923 3.39203 15.8524 3.56352C15.9128 3.73501 16.0747 3.8496 16.2565 3.84941Z" fill="white"/>
<path d="M12.8326 2.56662C12.946 2.56662 13.0548 2.52155 13.135 2.44134C13.2153 2.36114 13.2603 2.25228 13.2603 2.13885V0.42777C13.2603 0.191543 13.0688 0 12.8326 0C12.5963 0 12.4048 0.191543 12.4048 0.42777V2.13885C12.4048 2.25228 12.4499 2.36114 12.5301 2.44134C12.6103 2.52155 12.7191 2.56662 12.8326 2.56662Z" fill="white"/>
</svg>
