<svg width="45" height="45" viewBox="0 0 45 45" fill="none" xmlns="http://www.w3.org/2000/svg">
<path d="M11.0104 14.2633C11.0104 11.066 8.38902 8.43027 5.21008 8.43027L2.86726 8.42988C1.75187 8.42988 0.803711 9.38333 0.803711 10.5051C0.803711 11.6267 1.75182 12.5802 2.86726 12.5802H5.20978C6.1579 12.5802 6.88311 13.3095 6.88311 14.263V18.5819C6.88311 27.5563 8.27747 35.6889 25.456 35.6889C42.746 35.6889 44.0288 27.4439 44.0288 18.4136H11.0104V14.2633Z" fill="white"/>
<path d="M21.3844 41.0175C21.3844 43.2171 19.6111 45 17.4243 45C15.237 45 13.4641 43.2171 13.4641 41.0175C13.4641 38.8183 15.237 37.0354 17.4243 37.0354C19.6111 37.0354 21.3844 38.8183 21.3844 41.0175Z" fill="white"/>
<path d="M37.3917 41.0175C37.3917 43.2171 35.6187 45 33.4315 45C31.2446 45 29.4717 43.2171 29.4717 41.0175C29.4717 38.8183 31.2446 37.0354 33.4315 37.0354C35.6187 37.0354 37.3917 38.8183 37.3917 41.0175Z" fill="white"/>
<path d="M32.4277 0.0729747C31.5913 -0.207548 30.6988 0.353497 30.5315 1.19465L27.8545 15.6094H43.9732C43.9728 8.31779 39.1206 2.14815 32.4279 0.0728745L32.4277 0.0729747Z" fill="white"/>
</svg>
