<svg width="47" height="45" viewBox="0 0 47 45" fill="none" xmlns="http://www.w3.org/2000/svg">
<path d="M46.0492 16.2315C45.0181 14.5826 43.6195 13.5951 41.8897 13.2998C39.5781 12.904 37.2117 13.8983 35.6688 14.7696C35.6016 14.333 35.5364 13.8935 35.4564 13.4637H0.743666C0.262029 16.0461 0 18.779 0 21.6081C0 31.2583 3.00472 39.794 7.61059 45H28.5916C30.261 43.1113 31.717 40.7811 32.8992 38.1213C32.9012 38.1193 32.9041 38.1193 32.9071 38.1174C34.7247 36.8486 50.2943 23.0315 46.049 16.2308L46.0492 16.2315ZM34.6824 33.1058C35.6552 29.5855 36.2008 25.6988 36.2008 21.6087C36.2008 20.2607 36.1375 18.9385 36.0223 17.6401C37.18 16.8409 39.5289 15.565 41.445 15.8956C42.4158 16.0623 43.1914 16.6285 43.8153 17.6273C45.8042 20.8124 39.2816 28.6441 34.6823 33.1057L34.6824 33.1058Z" fill="#6F2DB5"/>
<path d="M23.8135 10.5426C24.3418 10.5426 24.7706 10.1148 24.7706 9.58555V4.42584C24.7706 3.89656 24.3418 3.46876 23.8135 3.46876C23.2852 3.46876 22.8564 3.89656 22.8564 4.42584V9.58522C22.8555 10.1145 23.2842 10.5426 23.8135 10.5426Z" fill="#6F2DB5"/>
<path d="M18.0996 10.5426C18.6279 10.5426 19.0567 10.1148 19.0567 9.58556V0.957077C19.0567 0.427799 18.6279 0 18.0996 0C17.5716 0 17.1425 0.427799 17.1425 0.957077V9.58639C17.1425 10.1144 17.5716 10.5425 18.0996 10.5425V10.5426Z" fill="#6F2DB5"/>
<path d="M12.3874 10.5426C12.9167 10.5426 13.3445 10.1148 13.3445 9.58555L13.3441 4.42584C13.3441 3.89656 12.9163 3.46876 12.3871 3.46876C11.8588 3.46876 11.43 3.89656 11.43 4.42584V9.58522C11.4303 10.1145 11.8591 10.5426 12.3874 10.5426Z" fill="#6F2DB5"/>
</svg>
