<svg width="63" height="45" viewBox="0 0 63 45" fill="none" xmlns="http://www.w3.org/2000/svg">
<path d="M31.3728 36.7417H0L3.21707 45.0001H59.5333L62.7555 36.7417H31.3728ZM8.39351 42.317C7.80866 42.317 7.28164 41.9649 7.05782 41.4242C6.83403 40.884 12.6777 44.186 13.0909 43.7727C13.5046 43.359 8.40664 39.3114 8.94685 39.5352C9.48706 39.759 5.31818 40.286 5.31818 40.8709C5.31818 41.6687 8.57006 42.9531 7.77273 42.9546L8.39351 42.317ZM54.34 42.317C53.7551 42.3175 53.2276 41.9653 53.0035 41.4251C52.7797 40.885 53.9263 42.7312 54.34 42.317C54.7532 41.9033 54.6866 42.3217 55.2273 42.5455C55.7675 42.7693 55.7853 40.286 55.7853 40.8709C55.7853 41.6682 49.4791 41.4232 48.6818 41.4251L54.34 42.317Z" fill="#6F2DB5"/>
<path d="M30.3197 8.08769C30.6713 8.07594 31.0187 8.04679 31.3728 8.04679C31.7268 8.04679 32.0742 8.07641 32.4259 8.08769V5.68674H39.5292V0H23.2188V5.68674H30.3197V8.08769Z" fill="#6F2DB5"/>
<path d="M60.2168 30.3424C58.0613 24.4243 54.1375 19.313 48.9778 15.7013C43.8186 12.0892 37.6724 10.1519 31.3736 10.1519C25.0757 10.1519 18.9301 12.0893 13.7705 15.7013C8.61083 19.3133 4.68704 24.4246 2.53149 30.3424H60.2168ZM38.0753 14.8793C41.8349 15.8637 45.3389 17.6455 48.3491 20.1038H49.909C47.1347 17.8373 40.6931 14.8165 37.2272 13.909L38.0753 14.8793Z" fill="#6F2DB5"/>
<path d="M1.84984 32.4487C1.64533 33.168 1.46104 33.8958 1.30872 34.6348H61.4402C61.2874 33.8977 61.1031 33.168 60.8976 32.4487H1.84984Z" fill="#6F2DB5"/>
</svg>
