<svg width="59" height="45" viewBox="0 0 59 45" fill="none" xmlns="http://www.w3.org/2000/svg">
<path d="M23.1421 6.97355C23.1421 10.8252 20.0371 13.9471 16.2076 13.9471C12.3775 13.9471 9.27263 10.8252 9.27263 6.97355C9.27263 3.12194 12.3775 0 16.2076 0C20.0371 0 23.1421 3.12194 23.1421 6.97355Z" fill="white"/>
<path d="M58.273 14.4735C59.2541 13.4869 59.2541 12.1051 58.273 11.1184C57.2919 10.1317 55.9179 10.1317 54.9367 11.1184L48.787 17.3027H37.4037L31.254 11.1184C30.2729 10.1317 28.8989 10.1317 27.9177 11.1184L21.7028 17.3027H10.3195L4.16984 11.1184C3.18872 10.1317 1.81469 10.1317 0.833499 11.1184C-0.147625 12.105 -0.147625 13.4868 0.833499 14.4735L9.66553 23.3553V42.6316C9.66553 43.8817 10.7776 45 12.0207 45C13.2637 45 14.3758 43.8816 14.3758 42.6316V35.4602C14.3758 34.4735 15.0302 33.8811 15.946 33.8811C16.9272 33.8811 17.5163 34.5392 17.5163 35.4602V42.6316C17.5163 43.8817 18.6283 45 19.8714 45C21.1144 45 22.2265 43.8816 22.2265 42.6316L22.2261 23.2234L29.4878 16.2498L36.7495 23.3551L31.9739 38.1577H36.7495V42.6311C36.7495 43.8812 37.8616 44.9995 39.1046 44.9995C40.3477 44.9995 41.4598 43.8812 41.4598 42.6311V38.1577H44.5999V42.6311C44.5999 43.8812 45.712 44.9995 46.955 44.9995C48.1981 44.9995 49.3102 43.8812 49.3102 42.6311V38.1577H54.0857L49.3102 23.3551L58.273 14.4735Z" fill="white"/>
<path d="M50.03 6.97355C50.03 10.8252 46.9251 13.9471 43.0955 13.9471C39.2655 13.9471 36.1605 10.8252 36.1605 6.97355C36.1605 3.12194 39.2655 0 43.0955 0C46.9251 0 50.03 3.12194 50.03 6.97355Z" fill="white"/>
</svg>
