<svg width="69" height="45" viewBox="0 0 69 45" fill="none" xmlns="http://www.w3.org/2000/svg">
<path d="M20.6729 11.5299C20.9216 11.3783 21.2467 11.4466 21.4165 11.6841C26.9082 19.386 37.8827 31.8183 46.5822 39.1947C44.683 19.6292 32.0498 6.29473 13.2952 4.13388C12.9308 17.4536 15.8712 27.5723 22.0393 34.2149C27.0438 39.6048 34.1622 42.6377 43.2172 43.2428C34.2735 35.1829 26.624 24.7684 20.46 12.263C20.3299 11.9998 20.4222 11.6806 20.6733 11.529L20.6729 11.5299Z" fill="white"/>
<path d="M35.7571 13.0326C37.5785 14.7599 39.2176 16.681 40.659 18.7843C42.5536 13.9918 45.9626 9.99054 51.0629 6.57649C51.2872 6.42379 51.589 6.45755 51.7775 6.65591C51.9659 6.85312 51.9858 7.15699 51.8255 7.37722C47.5509 13.2743 44.8405 18.6372 43.5403 23.7712C44.9844 26.7643 46.0936 30.0267 46.8379 33.5269C53.3436 25.8844 55.7481 14.8149 53.6107 2.14148C45.4389 4.03949 39.4417 7.70439 35.7576 13.0322L35.7571 13.0326Z" fill="white"/>
<path d="M64.6539 17.1599C67.0624 16.127 68.7442 12.662 68.7442 8.73361C68.7442 3.91815 66.2738 3.59694e-05 63.2373 3.59694e-05C60.2003 3.59694e-05 57.7303 3.91776 57.7303 8.73361C57.7303 12.662 59.4121 16.127 61.8206 17.1599C62.0358 17.2523 62.1709 17.4691 62.1602 17.7043L61.0358 42.5256C61.0107 43.0865 61.1346 43.6022 61.3933 44.0174C61.7989 44.6692 62.4193 44.9996 63.2372 44.9996C64.0548 44.9996 64.6752 44.6692 65.0812 44.0174C65.3402 43.6019 65.4638 43.0862 65.4387 42.5249L64.3143 17.7036C64.3036 17.4692 64.4387 17.252 64.6538 17.1595L64.6539 17.1599ZM60.9962 14.681L60.9958 14.6813C59.9974 13.4459 59.345 11.4082 59.345 9.10271C59.345 5.33468 61.0878 2.27982 63.2377 2.27982C65.3876 2.27982 67.1303 5.33429 67.1303 9.10271C67.1303 11.4082 66.4779 13.4459 65.4795 14.6813L65.4791 14.681H60.9962Z" fill="white"/>
<path d="M9.55568 0.98912C9.26725 0.98912 9.03299 1.24311 9.03299 1.55619V9.64671C9.03299 10.5491 8.32068 11.2823 7.44545 11.2823C6.57023 11.2823 5.85792 10.5487 5.85792 9.64671L5.85754 0.680256C5.85754 0.305024 5.57445 0 5.2265 0C4.87855 0 4.59469 0.305024 4.59469 0.680256V9.64632C4.59469 10.5487 3.88238 11.2819 3.00716 11.2819C2.13194 11.2819 1.41962 10.5483 1.41962 9.64632V1.55619C1.41962 1.24349 1.18537 0.98912 0.896931 0.98912C0.609262 0.98912 0.375 1.24311 0.375 1.55619V11.7476C0.375 12.9676 0.995744 14.1117 1.99682 14.7337L3.89455 15.9131C4.06776 16.0201 4.16849 16.2127 4.1601 16.4176L3.02507 42.4087C2.99913 42.9977 3.12426 43.5402 3.38713 43.9783C3.79918 44.6659 4.40085 45 5.22568 45C6.05053 45 6.65186 44.6658 7.06422 43.9783C7.32709 43.5405 7.45147 42.9976 7.42629 42.4087L6.29282 16.4166C6.28367 16.2125 6.38515 16.0199 6.55837 15.9121L8.45611 14.7327C9.45644 14.1104 10.0779 12.9667 10.0779 11.7466V1.55619C10.0772 1.24311 9.84374 0.98912 9.55568 0.98912Z" fill="white"/>
</svg>
