<svg width="17" height="8" viewBox="0 0 17 8" fill="none" xmlns="http://www.w3.org/2000/svg">
<path d="M17 4.00011C17 3.90275 16.939 3.77337 16.8772 3.71052L13.39 0.131385C13.2272 -0.0311822 12.9634 -0.0499795 12.7737 0.114937C12.604 0.262527 12.5998 0.550209 12.7567 0.710438L15.5559 3.57895L0.435863 3.57895C0.195047 3.57895 -1.64683e-07 3.76751 -1.74845e-07 3.99998C-1.85013e-07 4.2326 0.195206 4.421 0.435863 4.421L15.5559 4.421L12.7567 7.28952C12.5998 7.44974 12.6109 7.73039 12.7737 7.88487C12.9455 8.04802 13.2298 8.03348 13.39 7.86842L16.8772 4.28944C16.9796 4.19237 16.9983 4.09882 17 3.99999L17 4.00011Z" fill="#D8A94E"/>
</svg>
