<svg width="21" height="27" viewBox="0 0 21 27" fill="none" xmlns="http://www.w3.org/2000/svg">
<path d="M10.5002 13.5C11.2087 13.5 11.8153 13.2514 12.3203 12.7542C12.8244 12.2579 13.0764 11.661 13.0764 10.9634C13.0764 10.2659 12.8244 9.66849 12.3203 9.17132C11.8153 8.67499 11.2087 8.42683 10.5002 8.42683C9.79173 8.42683 9.18546 8.67499 8.68138 9.17132C8.17644 9.66849 7.92397 10.2659 7.92397 10.9634C7.92397 11.661 8.17644 12.2579 8.68138 12.7542C9.18546 13.2514 9.79173 13.5 10.5002 13.5ZM10.5002 26.1829C7.04376 23.287 4.46239 20.5969 2.75607 18.1128C1.0489 15.6295 0.195312 13.3309 0.195312 11.2171C0.195312 8.04634 1.23138 5.52033 3.30352 3.63903C5.3748 1.75772 7.77369 0.817074 10.5002 0.817074C13.2267 0.817074 15.6256 1.75772 17.6969 3.63903C19.769 5.52033 20.8051 8.04634 20.8051 11.2171C20.8051 13.3309 19.9519 15.6295 18.2456 18.1128C16.5384 20.5969 13.9566 23.287 10.5002 26.1829Z" fill="white"/>
</svg>
