<svg width="26" height="21" viewBox="0 0 26 21" fill="none" xmlns="http://www.w3.org/2000/svg">
<path d="M25.8772 16.8414C25.8772 17.3975 25.7184 17.913 25.4639 18.3665L17.3317 9.40556L25.3758 2.47433C25.6887 2.96339 25.8772 3.53787 25.8772 4.15868V16.8414ZM12.9992 11.0326L24.1923 1.38731C23.7329 1.13967 23.2157 0.987804 22.6578 0.987804H3.34059C2.78195 0.987804 2.26456 1.13967 1.80709 1.38731L12.9992 11.0326ZM16.1197 10.4491L13.5288 12.6831C13.3773 12.8131 13.1886 12.8781 12.9992 12.8781C12.8097 12.8781 12.621 12.8131 12.4694 12.6831L9.87793 10.449L1.6428 19.5245C2.13641 19.8295 2.71491 20.0122 3.34053 20.0122H22.6578C23.2833 20.0122 23.862 19.8295 24.3555 19.5245L16.1197 10.4491ZM0.622615 2.47428C0.309748 2.96334 0.121094 3.53782 0.121094 4.15868V16.8414C0.121094 17.3975 0.279173 17.913 0.534551 18.3666L8.66585 9.40404L0.622615 2.47428Z" fill="white"/>
</svg>
