<svg width="27" height="27" viewBox="0 0 27 27" fill="none" xmlns="http://www.w3.org/2000/svg">
<path d="M22.1496 16.6852C21.2328 15.7802 20.0884 15.7802 19.1775 16.6852C18.4826 17.3742 17.7878 18.0632 17.1046 18.7639C16.9177 18.9566 16.7601 18.9975 16.5323 18.869C16.0827 18.6238 15.6039 18.4252 15.1718 18.1567C13.1573 16.8896 11.4698 15.2605 9.97499 13.4271C9.23342 12.5162 8.5736 11.5411 8.11231 10.4434C8.01888 10.2215 8.0364 10.0755 8.21741 9.8945C8.91227 9.22302 9.58961 8.53402 10.2728 7.84502C11.2246 6.88743 11.2246 5.76634 10.2669 4.80291C9.72391 4.25405 9.18087 3.71686 8.63783 3.168C8.07727 2.60746 7.52255 2.04108 6.95616 1.48637C6.03941 0.593009 4.89494 0.593009 3.98404 1.49221C3.28334 2.18121 2.61184 2.88773 1.89946 3.56505C1.23964 4.18982 0.906811 4.95473 0.836742 5.84809C0.725798 7.30199 1.08199 8.67415 1.58415 10.0113C2.61184 12.779 4.17673 15.2372 6.07445 17.491C8.63783 20.539 11.6975 22.9505 15.2769 24.6905C16.8885 25.4729 18.5585 26.0743 20.3745 26.1736C21.6241 26.2436 22.7101 25.9283 23.5802 24.9532C24.1758 24.2876 24.8473 23.6803 25.4779 23.0439C26.4122 22.098 26.418 20.9535 25.4896 20.0193C24.3801 18.904 23.2649 17.7946 22.1496 16.6852Z" fill="white"/>
</svg>
