<svg width="29" height="29" viewBox="0 0 29 29" fill="none" xmlns="http://www.w3.org/2000/svg">
<path d="M14.4845 0.231705C6.6084 0.231705 0.230469 6.6239 0.230469 14.5C0.230469 22.3761 6.6084 28.7683 14.4845 28.7683C22.3749 28.7683 28.7671 22.3761 28.7671 14.5C28.7671 6.6239 22.3749 0.231705 14.4845 0.231705ZM20.2061 20.2073C20.0741 20.3396 19.9173 20.4445 19.7447 20.5161C19.5721 20.5877 19.387 20.6246 19.2002 20.6246C19.0133 20.6246 18.8283 20.5877 18.6557 20.5161C18.483 20.4445 18.3262 20.3396 18.1942 20.2073L13.5 15.513C13.3652 15.3809 13.2579 15.2233 13.1844 15.0494C13.111 14.8755 13.0727 14.6888 13.0719 14.5V8.79268C13.0719 8.00792 13.714 7.36585 14.4988 7.36585C15.2835 7.36585 15.9256 8.00792 15.9256 8.79268V13.915L20.2061 18.1955C20.7625 18.7519 20.7625 19.6509 20.2061 20.2073Z" fill="white"/>
</svg>
