<svg width="20" height="20" viewBox="0 0 20 20" fill="none" xmlns="http://www.w3.org/2000/svg">
<path d="M12.672 10C12.672 10.6329 12.4918 11.2516 12.1543 11.7778C11.8167 12.3041 11.3369 12.7142 10.7756 12.9564C10.2143 13.1986 9.59659 13.262 9.00068 13.1385C8.40477 13.015 7.85739 12.7103 7.42777 12.2627C6.99814 11.8152 6.70556 11.245 6.58703 10.6243C6.46849 10.0035 6.52933 9.36014 6.76184 8.77541C6.99435 8.19069 7.3881 7.69092 7.89329 7.3393C8.39848 6.98768 8.99242 6.8 9.6 6.8C10.414 6.80264 11.1939 7.14063 11.7694 7.74017C12.345 8.33972 12.6695 9.15212 12.672 10ZM19.2 5.6V14.4C19.2 15.8852 18.6336 17.3096 17.6254 18.3598C16.6172 19.41 15.2498 20 13.824 20H5.376C3.9502 20 2.58279 19.41 1.57459 18.3598C0.566398 17.3096 0 15.8852 0 14.4V5.6C0 4.11479 0.566398 2.69041 1.57459 1.6402C2.58279 0.589998 3.9502 0 5.376 0H13.824C15.2498 0 16.6172 0.589998 17.6254 1.6402C18.6336 2.69041 19.2 4.11479 19.2 5.6ZM14.208 10C14.208 9.05065 13.9377 8.12262 13.4314 7.33326C12.9251 6.54391 12.2054 5.92868 11.3634 5.56538C10.5214 5.20208 9.59489 5.10702 8.70102 5.29223C7.80716 5.47744 6.98609 5.9346 6.34165 6.60589C5.69721 7.27718 5.25834 8.13246 5.08054 9.06357C4.90274 9.99468 4.99399 10.9598 5.34276 11.8369C5.69153 12.714 6.28215 13.4636 7.03993 13.9911C7.79771 14.5185 8.68862 14.8 9.6 14.8C10.8221 14.8 11.9942 14.2943 12.8583 13.3941C13.7225 12.4939 14.208 11.273 14.208 10ZM15.744 4.8C15.744 4.56266 15.6764 4.33066 15.5499 4.13332C15.4233 3.93598 15.2434 3.78217 15.0329 3.69134C14.8224 3.60052 14.5907 3.57676 14.3673 3.62306C14.1438 3.66936 13.9385 3.78365 13.7774 3.95147C13.6163 4.11929 13.5066 4.33311 13.4621 4.56589C13.4177 4.79867 13.4405 5.03995 13.5277 5.25922C13.6149 5.47849 13.7625 5.66591 13.952 5.79776C14.1414 5.92962 14.3642 6 14.592 6C14.8975 6 15.1905 5.87357 15.4066 5.64853C15.6226 5.42348 15.744 5.11826 15.744 4.8Z" fill="#D8A94E"/>
</svg>
