<svg width="40" height="45" viewBox="0 0 40 45" fill="none" xmlns="http://www.w3.org/2000/svg">
<path d="M15.3166 25.9038C15.3166 25.1755 14.7634 24.5831 14.0834 24.5831H8.47293C7.79299 24.5831 7.24015 25.1755 7.24015 25.9038V26.8135H15.317L15.3166 25.9038Z" fill="#F2F2F2"/>
<path d="M1.23313 45H21.3227C22.0026 45 22.5558 44.4073 22.5558 43.6793L22.5555 39.4712C22.1866 39.7041 21.7591 39.8277 21.3227 39.8277H13.9044V40.7837C13.9044 41.7223 13.4038 42.5893 12.5912 43.0588C11.7784 43.5279 10.777 43.5279 9.96416 43.0588C9.15132 42.5894 8.65067 41.7223 8.65067 40.7837V39.828H1.23278C0.79632 39.828 0.36878 39.7044 0 39.4712V43.679C0 44.4073 0.553227 45 1.23278 45L1.23313 45Z" fill="#F2F2F2"/>
<path d="M23.6391 0H29.3702V2.28878H23.6391V0Z" fill="#F2F2F2"/>
<path d="M32.2386 1.72123H30.5233V2.48084C30.5226 3.01174 30.0927 3.44171 29.5617 3.44241H23.4464C22.9155 3.44173 22.4856 3.01179 22.4848 2.48084V1.72123H20.7699V6.87504H32.2388L32.2386 1.72123Z" fill="#F2F2F2"/>
<path d="M11.2779 42.2563C11.6684 42.2559 12.043 42.1007 12.3192 41.8246C12.5953 41.5482 12.7505 41.1738 12.7508 40.7834V37.8026H9.80473V40.7834C9.80542 41.1738 9.96063 41.5481 10.2367 41.8246C10.5128 42.1007 10.8875 42.2559 11.2779 42.2563Z" fill="#F2F2F2"/>
<path d="M19.6198 12.332H33.3903C33.7052 12.332 33.9607 12.5875 33.9607 12.9028V17.4927C33.9607 17.808 33.7052 18.0635 33.3903 18.0635H19.6198C19.3046 18.0635 19.0491 17.808 19.0491 17.4927V12.9028C19.0491 12.7513 19.1092 12.6061 19.2163 12.4993C19.3235 12.3921 19.4684 12.332 19.6198 12.332Z" fill="#F2F2F2"/>
<path d="M35.1134 42.4541H37.4022V43.4805H35.1134V42.4541Z" fill="#F2F2F2"/>
<path d="M16.4699 25.9038V26.8135H17.8947L17.8944 24.0914C17.8954 23.33 18.1983 22.5999 18.7364 22.0615C19.2749 21.523 20.005 21.2201 20.7666 21.2195H32.2417C33.0031 21.2201 33.7332 21.523 34.2716 22.0615C34.8101 22.5999 35.1129 23.33 35.1136 24.0914V41.3009H37.4055C37.8612 41.3006 38.2976 41.1193 38.6197 40.7971C38.9418 40.475 39.1232 40.0386 39.1235 39.5829V9.74749C39.1232 9.29179 38.9418 8.85501 38.6197 8.5329C38.2976 8.21113 37.8611 8.02981 37.4055 8.02913H15.6034C15.1477 8.02981 14.7109 8.21113 14.3888 8.53325C14.0671 8.85536 13.8857 9.29183 13.8854 9.74748V23.4283H14.0836C15.3998 23.4283 16.4705 24.5382 16.4705 25.9032L16.4699 25.9038ZM17.8947 12.9035H17.8944C17.8947 12.4461 18.0767 12.0076 18.4002 11.684C18.7234 11.3606 19.1619 11.1789 19.6193 11.1782H33.3897C33.8468 11.1789 34.285 11.3606 34.6085 11.684C34.9316 12.0072 35.1133 12.4454 35.114 12.9028V17.4927C35.1136 17.9498 34.9316 18.3884 34.6085 18.7114C34.285 19.0349 33.8468 19.2166 33.3897 19.2173H19.6193C19.1622 19.2166 18.7236 19.0349 18.4006 18.7114C18.0771 18.3883 17.8954 17.9498 17.8947 17.4927L17.8947 12.9035Z" fill="#F2F2F2"/>
<path d="M1.23317 38.6739H8.65106V37.2264C8.65106 36.9077 8.9093 36.6495 9.22798 36.6495H13.3279C13.6466 36.6495 13.9048 36.9077 13.9048 37.2264V38.6739H21.3227C22.0027 38.6739 22.5558 38.0811 22.5558 37.3532V29.2876C22.5558 28.5593 22.0026 27.9669 21.3227 27.9669H1.23317C0.553226 27.9669 0.00038633 28.5593 0.00038633 29.2876V37.3528C0.00038633 38.0812 0.553613 38.6739 1.23317 38.6739Z" fill="#F2F2F2"/>
<path d="M23.7095 41.3008H33.9591V24.0913C33.9588 23.6359 33.7774 23.1992 33.4553 22.877C33.1335 22.5549 32.6967 22.3736 32.2411 22.3733H20.7669C20.3112 22.3736 19.8744 22.5549 19.5523 22.877C19.2302 23.1992 19.0492 23.636 19.0485 24.0913V26.8128H21.3225C22.6388 26.8128 23.7095 27.923 23.7095 29.2873V41.3008Z" fill="#F2F2F2"/>
</svg>
