<svg width="45" height="45" viewBox="0 0 45 45" fill="none" xmlns="http://www.w3.org/2000/svg">
<path d="M42.1894 6.60936C42.1894 9.19644 40.0918 11.291 37.5078 11.291C34.9221 11.291 32.8276 9.19644 32.8276 6.60936C32.8276 4.02502 34.9221 1.92913 37.5078 1.92913C40.0921 1.92868 42.1894 4.02456 42.1894 6.60936ZM43.8016 4.60256C42.694 1.12483 38.9769 -0.793433 35.5022 0.31332C32.0236 1.42366 30.1022 5.14117 31.213 8.61581C31.8648 10.6566 33.4624 12.2542 35.5022 12.9051V40.9827H0V45H39.5151L39.5156 12.906C42.992 11.7956 44.9116 8.07812 43.8013 4.60256H43.8016ZM37.9292 7.92466L39.5594 3.33662L36.1411 6.80496L37.9292 7.92466Z" fill="#F2F2F2"/>
<path d="M4.82505 18.9218H6.86185V38.6576H4.82505L2.78516 36.6203V20.9615L4.82505 18.9218Z" fill="#F2F2F2"/>
<path d="M12.063 18.9218V14.8736C12.063 14.4271 12.424 14.0657 12.8705 14.0657H23.0573C23.5051 14.0657 23.8652 14.4267 23.8652 14.8736V18.9218H27.1653V38.6576H8.76367V18.9218H12.063ZM13.9311 18.9218H21.9997V16.74C21.9997 16.2944 21.6404 15.9325 21.1917 15.9325H14.7359C14.2908 15.9325 13.9302 16.2935 13.9302 16.74L13.9307 18.9218H13.9311Z" fill="#F2F2F2"/>
<path d="M31.1055 18.9218H29.0664V38.6576H31.1055L33.1458 36.6203V20.9615L31.1055 18.9218Z" fill="#F2F2F2"/>
</svg>
